<svg xmlns="http://www.w3.org/2000/svg" viewBox="0 0 1280 520" fill="none" role="img" aria-label="Immortal: the self-healing engine for modern infrastructure.">
  <defs>
    <linearGradient id="bg" x1="0" y1="0" x2="1" y2="1">
      <stop offset="0" stop-color="#0a0e14"/>
      <stop offset="1" stop-color="#0f141b"/>
    </linearGradient>
    <linearGradient id="brand" x1="0" y1="0" x2="1" y2="1">
      <stop offset="0" stop-color="#5eead4"/>
      <stop offset="1" stop-color="#a78bfa"/>
    </linearGradient>
    <linearGradient id="line" x1="0" y1="0" x2="1" y2="0">
      <stop offset="0" stop-color="#5eead4" stop-opacity="0"/>
      <stop offset="0.2" stop-color="#5eead4" stop-opacity="1"/>
      <stop offset="1" stop-color="#a78bfa" stop-opacity="1"/>
    </linearGradient>
    <linearGradient id="fillBand" x1="0" y1="0" x2="0" y2="1">
      <stop offset="0" stop-color="#5eead4" stop-opacity="0.30"/>
      <stop offset="1" stop-color="#5eead4" stop-opacity="0"/>
    </linearGradient>
    <radialGradient id="glowA" cx="0.15" cy="0" r="0.9">
      <stop offset="0" stop-color="#5eead4" stop-opacity="0.14"/>
      <stop offset="1" stop-color="#5eead4" stop-opacity="0"/>
    </radialGradient>
    <radialGradient id="glowB" cx="1" cy="1" r="0.8">
      <stop offset="0" stop-color="#a78bfa" stop-opacity="0.12"/>
      <stop offset="1" stop-color="#a78bfa" stop-opacity="0"/>
    </radialGradient>
  </defs>

  <!-- background -->
  <rect width="1280" height="520" fill="url(#bg)"/>
  <rect width="1280" height="520" fill="url(#glowA)"/>
  <rect width="1280" height="520" fill="url(#glowB)"/>

  <!-- subtle grid -->
  <g stroke="#1a2330" stroke-width="1" opacity="0.45">
    <line x1="0" y1="100" x2="1280" y2="100"/>
    <line x1="0" y1="200" x2="1280" y2="200"/>
    <line x1="0" y1="300" x2="1280" y2="300"/>
    <line x1="0" y1="400" x2="1280" y2="400"/>
  </g>

  <!-- ── Top status row ── -->
  <g transform="translate(64, 52)">
    <!-- Live dot, tight glow -->
    <circle cx="6" cy="6" r="6" fill="#5eead4" opacity="0.18"/>
    <circle cx="6" cy="6" r="3" fill="#5eead4"/>
    <!-- LIVE text, with generous left gap from the dot -->
    <text x="22" y="10" font-family="ui-monospace, 'JetBrains Mono', monospace" font-size="12" fill="#5eead4" letter-spacing="0.24em" font-weight="700">LIVE</text>
    <!-- meta line, also with generous gap -->
    <text x="82" y="10" font-family="ui-monospace, 'JetBrains Mono', monospace" font-size="12" fill="#64748b" letter-spacing="0.06em">immortal v0.5.0 · 79 packages · 0 failures</text>
  </g>

  <!-- ── Wordmark ── -->
  <g transform="translate(64, 168)">
    <text x="0" y="0" font-family="ui-serif, 'Playfair Display', Georgia, serif" font-size="108" font-weight="900" fill="#f8fafc" letter-spacing="-0.04em">Immortal</text>
    <!-- brand underline, placed safely below the text baseline -->
    <rect x="0" y="26" width="360" height="4" fill="url(#brand)" rx="2"/>
  </g>

  <!-- ── Tagline ── -->
  <g transform="translate(64, 246)">
    <text x="0" y="0" font-family="ui-sans-serif, Inter, system-ui, sans-serif" font-size="22" fill="#e2e8f0" font-weight="600">The self-healing engine for modern infrastructure.</text>
    <text x="0" y="30" font-family="ui-sans-serif, Inter, system-ui, sans-serif" font-size="15" fill="#94a3b8">Detect in milliseconds. Heal autonomously. Prove every action.</text>
  </g>

  <!-- ── Feature chips ── -->
  <g font-family="ui-sans-serif, Inter, system-ui, sans-serif" font-size="12" font-weight="600" transform="translate(64, 340)">
    <g transform="translate(0, 0)">
      <rect x="0" y="0" width="134" height="30" rx="15" fill="#101823" stroke="#1e2a3a"/>
      <circle cx="16" cy="15" r="4" fill="#5eead4"/>
      <text x="30" y="20" fill="#cbd5e1">Agentic healing</text>
    </g>
    <g transform="translate(146, 0)">
      <rect x="0" y="0" width="118" height="30" rx="15" fill="#101823" stroke="#1e2a3a"/>
      <circle cx="16" cy="15" r="4" fill="#a78bfa"/>
      <text x="30" y="20" fill="#cbd5e1">Digital twin</text>
    </g>
    <g transform="translate(276, 0)">
      <rect x="0" y="0" width="150" height="30" rx="15" fill="#101823" stroke="#1e2a3a"/>
      <circle cx="16" cy="15" r="4" fill="#fbbf24"/>
      <text x="30" y="20" fill="#cbd5e1">Post-quantum audit</text>
    </g>
    <g transform="translate(438, 0)">
      <rect x="0" y="0" width="138" height="30" rx="15" fill="#101823" stroke="#1e2a3a"/>
      <circle cx="16" cy="15" r="4" fill="#f472b6"/>
      <text x="30" y="20" fill="#cbd5e1">Causal inference</text>
    </g>
    <g transform="translate(588, 0)">
      <rect x="0" y="0" width="154" height="30" rx="15" fill="#101823" stroke="#1e2a3a"/>
      <circle cx="16" cy="15" r="4" fill="#22d3ee"/>
      <text x="30" y="20" fill="#cbd5e1">Formal verification</text>
    </g>
  </g>

  <!-- ── Chart card (right side) ── -->
  <g transform="translate(800, 110)">
    <rect x="0" y="0" width="416" height="300" rx="16" fill="#0b1119" stroke="#1e2a3a"/>

    <!-- card header -->
    <text x="24" y="36" font-family="ui-sans-serif, Inter, system-ui, sans-serif" font-size="13" font-weight="600" fill="#e2e8f0">Engine signals</text>
    <text x="24" y="56" font-family="ui-sans-serif, Inter, system-ui, sans-serif" font-size="11" fill="#64748b">latency p99 · last 1 hour</text>

    <!-- KPI 1 -->
    <text x="24" y="104" font-family="ui-sans-serif, Inter, system-ui, sans-serif" font-size="10" fill="#64748b" letter-spacing="0.12em" font-weight="600">HEALTH SCORE</text>
    <text x="24" y="144" font-family="ui-monospace, 'JetBrains Mono', monospace" font-size="38" font-weight="700" fill="#f8fafc">0.987</text>
    <text x="24" y="168" font-family="ui-monospace, 'JetBrains Mono', monospace" font-size="11" fill="#5eead4">▲ +0.014 · last 24 h</text>

    <!-- KPI 2 -->
    <text x="220" y="104" font-family="ui-sans-serif, Inter, system-ui, sans-serif" font-size="10" fill="#64748b" letter-spacing="0.12em" font-weight="600">HEALED</text>
    <text x="220" y="144" font-family="ui-monospace, 'JetBrains Mono', monospace" font-size="38" font-weight="700" fill="#f8fafc">142</text>
    <text x="220" y="168" font-family="ui-monospace, 'JetBrains Mono', monospace" font-size="11" fill="#a78bfa">events · p99 187 ms</text>

    <!-- grid -->
    <g stroke="#1a2330" stroke-width="1" stroke-dasharray="2 3">
      <line x1="24" x2="392" y1="210" y2="210"/>
      <line x1="24" x2="392" y1="240" y2="240"/>
      <line x1="24" x2="392" y1="270" y2="270"/>
    </g>

    <!-- area fill + line -->
    <path d="M 24 258 L 58 248 L 92 250 L 126 238 L 160 232 L 194 220 L 228 226 L 262 208 L 296 196 L 330 190 L 364 198 L 392 184 L 392 276 L 24 276 Z" fill="url(#fillBand)"/>
    <path d="M 24 258 L 58 248 L 92 250 L 126 238 L 160 232 L 194 220 L 228 226 L 262 208 L 296 196 L 330 190 L 364 198 L 392 184" stroke="url(#line)" stroke-width="2" fill="none" stroke-linecap="round" stroke-linejoin="round"/>

    <!-- endpoint -->
    <circle cx="392" cy="184" r="4" fill="#a78bfa"/>
    <circle cx="392" cy="184" r="8" fill="#a78bfa" opacity="0.25"/>
  </g>

  <!-- ── Bottom ribbon ── -->
  <g transform="translate(64, 472)">
    <text font-family="ui-monospace, 'JetBrains Mono', monospace" font-size="11" fill="#475569" letter-spacing="0.06em">
      <tspan>Apache 2.0</tspan>
      <tspan dx="28" fill="#334155">/</tspan>
      <tspan dx="28">Single Go binary</tspan>
      <tspan dx="28" fill="#334155">/</tspan>
      <tspan dx="28">Zero external deps</tspan>
      <tspan dx="28" fill="#334155">/</tspan>
      <tspan dx="28">79 packages</tspan>
      <tspan dx="28" fill="#334155">/</tspan>
      <tspan dx="28">3 SDKs</tspan>
    </text>
  </g>
</svg>
