<svg xmlns="http://www.w3.org/2000/svg" viewBox="0 0 1280 480" fill="none" role="img" aria-label="Immortal: the self-healing engine for modern infrastructure.">
  <defs>
    <linearGradient id="bg" x1="0" y1="0" x2="1" y2="1">
      <stop offset="0" stop-color="#0a0e14"/>
      <stop offset="1" stop-color="#0f141b"/>
    </linearGradient>
    <linearGradient id="brand" x1="0" y1="0" x2="1" y2="1">
      <stop offset="0" stop-color="#5eead4"/>
      <stop offset="1" stop-color="#a78bfa"/>
    </linearGradient>
    <linearGradient id="line" x1="0" y1="0" x2="1" y2="0">
      <stop offset="0" stop-color="#5eead4" stop-opacity="0"/>
      <stop offset="0.2" stop-color="#5eead4" stop-opacity="1"/>
      <stop offset="1" stop-color="#a78bfa" stop-opacity="1"/>
    </linearGradient>
    <linearGradient id="fillBand" x1="0" y1="0" x2="0" y2="1">
      <stop offset="0" stop-color="#5eead4" stop-opacity="0.35"/>
      <stop offset="1" stop-color="#5eead4" stop-opacity="0"/>
    </linearGradient>
    <radialGradient id="glow" cx="0.2" cy="0" r="0.9">
      <stop offset="0" stop-color="#5eead4" stop-opacity="0.16"/>
      <stop offset="1" stop-color="#5eead4" stop-opacity="0"/>
    </radialGradient>
    <radialGradient id="glow2" cx="1" cy="1" r="0.8">
      <stop offset="0" stop-color="#a78bfa" stop-opacity="0.12"/>
      <stop offset="1" stop-color="#a78bfa" stop-opacity="0"/>
    </radialGradient>
  </defs>

  <!-- background -->
  <rect width="1280" height="480" fill="url(#bg)"/>
  <rect width="1280" height="480" fill="url(#glow)"/>
  <rect width="1280" height="480" fill="url(#glow2)"/>

  <!-- subtle grid -->
  <g stroke="#1a2330" stroke-width="1" opacity="0.5">
    <line x1="0"  y1="80"  x2="1280" y2="80"/>
    <line x1="0"  y1="160" x2="1280" y2="160"/>
    <line x1="0"  y1="240" x2="1280" y2="240"/>
    <line x1="0"  y1="320" x2="1280" y2="320"/>
    <line x1="0"  y1="400" x2="1280" y2="400"/>
  </g>

  <!-- top status bar -->
  <g transform="translate(60, 40)">
    <circle cx="8" cy="8" r="5" fill="#5eead4"/>
    <circle cx="8" cy="8" r="10" fill="#5eead4" opacity="0.25"/>
    <text x="24" y="12" font-family="ui-monospace, 'JetBrains Mono', monospace" font-size="12" fill="#5eead4" letter-spacing="0.2em" font-weight="600">LIVE</text>
    <text x="80" y="12" font-family="ui-monospace, 'JetBrains Mono', monospace" font-size="12" fill="#64748b" letter-spacing="0.05em">immortal v0.5.0 · 79 packages · 0 failures</text>
  </g>

  <!-- wordmark -->
  <g transform="translate(60, 120)">
    <text x="0" y="0" font-family="ui-serif, 'Playfair Display', Georgia, serif" font-size="108" font-weight="900" fill="#f8fafc" letter-spacing="-0.04em">
      Immortal
    </text>
    <rect x="0" y="22" width="360" height="4" fill="url(#brand)" rx="2"/>
  </g>

  <!-- tagline -->
  <g transform="translate(60, 220)">
    <text x="0" y="0" font-family="ui-sans-serif, Inter, system-ui, sans-serif" font-size="22" fill="#cbd5e1" font-weight="500">
      The self-healing engine for modern infrastructure.
    </text>
    <text x="0" y="30" font-family="ui-sans-serif, Inter, system-ui, sans-serif" font-size="15" fill="#94a3b8">
      Detect in milliseconds. Heal autonomously. Prove every action.
    </text>
  </g>

  <!-- feature chips -->
  <g font-family="ui-sans-serif, Inter, system-ui, sans-serif" font-size="12" font-weight="600">
    <g transform="translate(60, 310)">
      <rect x="0"   y="0" width="124" height="28" rx="14" fill="#101823" stroke="#1e2a3a"/>
      <circle cx="14" cy="14" r="4" fill="#5eead4"/>
      <text x="26" y="18" fill="#cbd5e1">Agentic healing</text>
    </g>
    <g transform="translate(196, 310)">
      <rect x="0" y="0" width="110" height="28" rx="14" fill="#101823" stroke="#1e2a3a"/>
      <circle cx="14" cy="14" r="4" fill="#a78bfa"/>
      <text x="26" y="18" fill="#cbd5e1">Digital twin</text>
    </g>
    <g transform="translate(318, 310)">
      <rect x="0" y="0" width="142" height="28" rx="14" fill="#101823" stroke="#1e2a3a"/>
      <circle cx="14" cy="14" r="4" fill="#fbbf24"/>
      <text x="26" y="18" fill="#cbd5e1">Post-quantum audit</text>
    </g>
    <g transform="translate(472, 310)">
      <rect x="0" y="0" width="132" height="28" rx="14" fill="#101823" stroke="#1e2a3a"/>
      <circle cx="14" cy="14" r="4" fill="#f472b6"/>
      <text x="26" y="18" fill="#cbd5e1">Causal inference</text>
    </g>
    <g transform="translate(616, 310)">
      <rect x="0" y="0" width="148" height="28" rx="14" fill="#101823" stroke="#1e2a3a"/>
      <circle cx="14" cy="14" r="4" fill="#22d3ee"/>
      <text x="26" y="18" fill="#cbd5e1">Formal verification</text>
    </g>
  </g>

  <!-- chart mock (right side) -->
  <g transform="translate(780, 100)">
    <!-- card -->
    <rect x="0" y="0" width="440" height="300" rx="16" fill="#0b1119" stroke="#1e2a3a"/>

    <!-- card header -->
    <text x="24" y="34" font-family="ui-sans-serif, Inter, system-ui, sans-serif" font-size="13" font-weight="600" fill="#e2e8f0">Engine signals</text>
    <text x="24" y="52" font-family="ui-sans-serif, Inter, system-ui, sans-serif" font-size="11" fill="#64748b">latency p99 · last 1 hour</text>

    <!-- KPI -->
    <text x="24" y="94" font-family="ui-sans-serif, Inter, system-ui, sans-serif" font-size="11" fill="#64748b" letter-spacing="0.1em">HEALTH SCORE</text>
    <text x="24" y="132" font-family="ui-monospace, 'JetBrains Mono', monospace" font-size="38" font-weight="700" fill="#f8fafc">0.987</text>
    <text x="24" y="156" font-family="ui-monospace, 'JetBrains Mono', monospace" font-size="11" fill="#5eead4">▲ +0.014 · last 24 h</text>

    <!-- right KPI -->
    <text x="220" y="94" font-family="ui-sans-serif, Inter, system-ui, sans-serif" font-size="11" fill="#64748b" letter-spacing="0.1em">HEALED</text>
    <text x="220" y="132" font-family="ui-monospace, 'JetBrains Mono', monospace" font-size="38" font-weight="700" fill="#f8fafc">142</text>
    <text x="220" y="156" font-family="ui-monospace, 'JetBrains Mono', monospace" font-size="11" fill="#a78bfa">events · p99 187 ms</text>

    <!-- grid -->
    <g stroke="#1a2330" stroke-width="1" stroke-dasharray="2 3">
      <line x1="24" x2="416" y1="200" y2="200"/>
      <line x1="24" x2="416" y1="230" y2="230"/>
      <line x1="24" x2="416" y1="260" y2="260"/>
    </g>

    <!-- area fill -->
    <path d="M 24 250 L 60 240 L 96 242 L 132 230 L 168 225 L 204 212 L 240 220 L 276 200 L 312 190 L 348 182 L 384 192 L 416 178 L 416 270 L 24 270 Z" fill="url(#fillBand)"/>

    <!-- line -->
    <path d="M 24 250 L 60 240 L 96 242 L 132 230 L 168 225 L 204 212 L 240 220 L 276 200 L 312 190 L 348 182 L 384 192 L 416 178" stroke="url(#line)" stroke-width="2" fill="none" stroke-linecap="round" stroke-linejoin="round"/>

    <!-- dots at end -->
    <circle cx="416" cy="178" r="4" fill="#a78bfa"/>
    <circle cx="416" cy="178" r="8" fill="#a78bfa" opacity="0.25"/>
  </g>

  <!-- bottom ribbon -->
  <g transform="translate(60, 428)">
    <text font-family="ui-monospace, 'JetBrains Mono', monospace" font-size="11" fill="#475569" letter-spacing="0.05em">
      <tspan>Apache 2.0</tspan>
      <tspan dx="24" fill="#334155">/</tspan>
      <tspan dx="24">Single Go binary</tspan>
      <tspan dx="24" fill="#334155">/</tspan>
      <tspan dx="24">Zero external deps</tspan>
      <tspan dx="24" fill="#334155">/</tspan>
      <tspan dx="24">79 packages</tspan>
      <tspan dx="24" fill="#334155">/</tspan>
      <tspan dx="24">3 SDKs</tspan>
    </text>
  </g>
</svg>
